<?xml version="1.0" encoding="UTF-8" standalone="no"?>
<!-- Created with Inkscape (http://www.inkscape.org/) -->

<svg
   xmlns:dc="http://purl.org/dc/elements/1.1/"
   xmlns:cc="http://creativecommons.org/ns#"
   xmlns:rdf="http://www.w3.org/1999/02/22-rdf-syntax-ns#"
   xmlns:svg="http://www.w3.org/2000/svg"
   xmlns="http://www.w3.org/2000/svg"
   xmlns:sodipodi="http://sodipodi.sourceforge.net/DTD/sodipodi-0.dtd"
   xmlns:inkscape="http://www.inkscape.org/namespaces/inkscape"
   id="svg2985"
   version="1.1"
   inkscape:version="0.48.3.1 r9886"
   width="360.99609"
   height="241.38644"
   sodipodi:docname="HBC_Logo.svg">
  <metadata
     id="metadata2991">
    <rdf:RDF>
      <cc:Work
         rdf:about="">
        <dc:format>image/svg+xml</dc:format>
        <dc:type
           rdf:resource="http://purl.org/dc/dcmitype/StillImage" />
        <dc:title></dc:title>
      </cc:Work>
    </rdf:RDF>
  </metadata>
  <defs
     id="defs2989" />
  <sodipodi:namedview
     pagecolor="#ffffff"
     bordercolor="#666666"
     borderopacity="1"
     objecttolerance="10"
     gridtolerance="10"
     guidetolerance="10"
     inkscape:pageopacity="0"
     inkscape:pageshadow="2"
     inkscape:window-width="1366"
     inkscape:window-height="709"
     id="namedview2987"
     showgrid="false"
     showguides="true"
     inkscape:guide-bbox="true"
     fit-margin-top="0"
     fit-margin-left="0"
     fit-margin-right="0"
     fit-margin-bottom="0"
     inkscape:zoom="1.8434504"
     inkscape:cx="188.30127"
     inkscape:cy="129.55813"
     inkscape:window-x="-8"
     inkscape:window-y="-8"
     inkscape:window-maximized="1"
     inkscape:current-layer="svg2985" />
  <path
     style="fill:#ffffff;fill-opacity:1;stroke:none"
     d="M 0,233.52987 0,10.533781 c 120.59065,-36.701266 214.35942,37.63642 360.99609,-4 l 0,226.996089 c -71.76576,12.7653 -113.1683,7.87921 -161.45527,0.10688 C 125.65686,221.7443 55.056028,214.09448 0,233.52987 z"
     id="path3031"
     inkscape:connector-curvature="0"
     sodipodi:nodetypes="ccccsc" />
  <path
     style="fill:#021e4b;fill-opacity:1;fill-rule:evenodd;stroke:none"
     d="m 53,64.533781 0,112.999999 19,0 0,-52 56,0 0,52 55.5,0 c 18.28312,0 33.33394,-13.82888 35.28125,-31.59375 9.20742,18.7124 28.45754,31.59375 50.71875,31.59375 13.81741,0 26.46476,-4.98137 36.28125,-13.21875 l -12.46875,-14.5625 c -0.93922,0.77737 -1.79956,1.65942 -2.8125,2.34375 -1.99602,1.34849 -4.13064,2.51947 -6.375,3.46875 -2.24436,0.94928 -4.58885,1.68771 -7.03125,2.1875 -2.4424,0.49979 -4.97235,0.75 -7.5625,0.75 -2.59015,0 -5.1201,-0.25021 -7.5625,-0.75 -2.4424,-0.49979 -4.81814,-1.23822 -7.0625,-2.1875 -2.24436,-0.94928 -4.37898,-2.12026 -6.375,-3.46875 -1.99602,-1.34849 -3.83385,-2.89635 -5.53125,-4.59375 -1.6974,-1.6974 -3.24526,-3.53523 -4.59375,-5.53125 -1.34849,-1.99602 -2.51947,-4.13065 -3.46875,-6.375 -0.94928,-2.24435 -1.68771,-4.6201 -2.1875,-7.0625 -0.49979,-2.4424 -0.75,-4.97235 -0.75,-7.5625 0,-2.59015 0.25021,-5.08885 0.75,-7.53125 0.49979,-2.4424 1.23822,-4.81814 2.1875,-7.0625 0.94928,-2.24436 2.12026,-4.37898 3.46875,-6.375 1.34849,-1.996019 2.89635,-3.833849 4.59375,-5.531249 1.6974,-1.6974 3.53523,-3.24526 5.53125,-4.59375 1.99602,-1.34849 4.13064,-2.51947 6.375,-3.46875 2.24436,-0.94928 4.6201,-1.68771 7.0625,-2.1875 2.4424,-0.49979 4.97235,-0.75 7.5625,-0.75 2.59015,0 5.1201,0.25021 7.5625,0.75 2.4424,0.49979 4.78689,1.23822 7.03125,2.1875 2.24436,0.94928 4.37898,2.12026 6.375,3.46875 1.03178,0.69705 1.91977,1.58147 2.875,2.375 l 12.40625,-14.5 C 295.96476,69.515153 283.31741,64.533781 269.5,64.533781 c -31.20057,0 -56.5,25.29943 -56.5,56.499999 0,0.44035 0.0212,0.87455 0.0312,1.3125 -1.95428,-2.92816 -4.31661,-5.55537 -7.03125,-7.78125 4.41842,-5.2914 7.09375,-12.09861 7.09375,-19.531249 0,-16.843608 -13.65639,-30.5 -30.5,-30.5 -0.0316,0 -0.0622,-9.6e-5 -0.0937,0 l -54.5,0 0,41.999999 -56,0 0,-41.999999 -19,0 z m 94,19 35.5,0 c 6.3513,0 11.5,5.1487 11.5,11.5 0,6.351309 -5.1487,11.499999 -11.5,11.499999 l -35.5,0 0,-22.999999 z m 0,41.999999 37,0 0,0.0312 c 8.87923,0.26673 16,7.52488 16,16.46875 0,8.94388 -7.12077,16.20202 -16,16.46875 l 0,0.0312 -37,0 0,-33 z"
     id="path3949"
     inkscape:connector-curvature="0" />
</svg>
